solid Tesis-base sola
facet normal 0.0 0.0 -1.0
  outer loop
    vertex 777.8826823077018 431.1359534276557 -66.99999999999989
    vertex 619.8826823077014 281.13595342765575 -66.99999999999989
    vertex 619.8826823077014 431.1359534276557 -66.99999999999989
  endloop
endfacet
facet normal 0.0 0.0 -1.0
  outer loop
    vertex 619.8826823077014 281.13595342765575 -66.99999999999989
    vertex 777.8826823077018 431.1359534276557 -66.99999999999989
    vertex 777.8826823077018 281.13595342765575 -66.99999999999989
  endloop
endfacet
facet normal 1.0 0.0 0.0
  outer loop
    vertex 707.4105745330348 284.1359534276557 -62.99999999999989
    vertex 707.4105745330348 281.13595342765586 -28.999999999999886
    vertex 707.4105745330348 281.13595342765575 -62.999999999999886
  endloop
endfacet
facet normal 1.0 0.0 0.0
  outer loop
    vertex 707.4105745330348 281.13595342765586 -28.999999999999886
    vertex 707.4105745330348 284.1359534276557 -62.99999999999989
    vertex 707.4105745330348 284.13595342765586 -28.999999999999897
  endloop
endfacet
facet normal 1.0 0.0 0.0
  outer loop
    vertex 707.4105745330348 284.13595342765586 -28.999999999999897
    vertex 707.4105745330348 284.1359534276557 -62.99999999999989
    vertex 707.4105745330348 284.13595342765586 -31.999999999999897
  endloop
endfacet
facet normal 1.0879787673723798e-44 1.0 -4.366399714912874e-15
  outer loop
    vertex 687.1989851629032 284.13595342765586 -31.999999999999897
    vertex 707.4105745330348 284.1359534276557 -62.99999999999989
    vertex 687.1989851629032 284.1359534276557 -62.99999999999989
  endloop
endfacet
facet normal 1.0879787673723798e-44 1.0 -4.366399714912874e-15
  outer loop
    vertex 707.4105745330348 284.1359534276557 -62.99999999999989
    vertex 687.1989851629032 284.13595342765586 -31.999999999999897
    vertex 707.4105745330348 284.13595342765586 -31.999999999999897
  endloop
endfacet
facet normal -1.0 0.0 0.0
  outer loop
    vertex 687.1989851629032 281.13595342765586 -28.999999999999886
    vertex 687.1989851629032 284.1359534276557 -62.99999999999989
    vertex 687.1989851629032 281.13595342765575 -62.999999999999886
  endloop
endfacet
facet normal -1.0 0.0 0.0
  outer loop
    vertex 687.1989851629032 284.1359534276557 -62.99999999999989
    vertex 687.1989851629032 281.13595342765586 -28.999999999999886
    vertex 687.1989851629032 284.13595342765586 -28.999999999999897
  endloop
endfacet
facet normal -1.0 0.0 0.0
  outer loop
    vertex 687.1989851629032 284.1359534276557 -62.99999999999989
    vertex 687.1989851629032 284.13595342765586 -28.999999999999897
    vertex 687.1989851629032 284.13595342765586 -31.999999999999897
  endloop
endfacet
facet normal -1.0 0.0 0.0
  outer loop
    vertex 687.8826823077017 431.1359534276557 -28.999999999999886
    vertex 687.8826823077017 428.1359534276556 -31.999999999999886
    vertex 687.8826823077017 428.1359534276556 -28.999999999999886
  endloop
endfacet
facet normal -1.0 0.0 0.0
  outer loop
    vertex 687.8826823077017 428.1359534276556 -31.999999999999886
    vertex 687.8826823077017 431.1359534276557 -28.999999999999886
    vertex 687.8826823077017 428.1359534276556 -62.999999999999886
  endloop
endfacet
facet normal -1.0 0.0 0.0
  outer loop
    vertex 687.8826823077017 428.1359534276556 -62.999999999999886
    vertex 687.8826823077017 431.1359534276557 -28.999999999999886
    vertex 687.8826823077017 431.1359534276557 -62.999999999999886
  endloop
endfacet
facet normal 0.0 -1.0 0.0
  outer loop
    vertex 707.4105745330348 428.1359534276556 -62.99999999999987
    vertex 687.8826823077017 428.1359534276556 -31.999999999999886
    vertex 687.8826823077017 428.1359534276556 -62.999999999999886
  endloop
endfacet
facet normal 0.0 -1.0 0.0
  outer loop
    vertex 687.8826823077017 428.1359534276556 -31.999999999999886
    vertex 707.4105745330348 428.1359534276556 -62.99999999999987
    vertex 707.4105745330348 428.1359534276556 -31.999999999999886
  endloop
endfacet
facet normal 1.0 0.0 0.0
  outer loop
    vertex 707.4105745330348 431.1359534276557 -62.99999999999987
    vertex 707.4105745330348 428.1359534276556 -31.999999999999886
    vertex 707.4105745330348 428.1359534276556 -62.99999999999987
  endloop
endfacet
facet normal 1.0 0.0 0.0
  outer loop
    vertex 707.4105745330348 428.1359534276556 -31.999999999999886
    vertex 707.4105745330348 431.1359534276557 -62.99999999999987
    vertex 707.4105745330348 428.1359534276556 -28.999999999999886
  endloop
endfacet
facet normal 1.0 0.0 0.0
  outer loop
    vertex 707.4105745330348 428.1359534276556 -28.999999999999886
    vertex 707.4105745330348 431.1359534276557 -62.99999999999987
    vertex 707.4105745330348 431.1359534276557 -28.999999999999886
  endloop
endfacet
facet normal 5.0119576865461934e-33 7.833240229299731e-17 -1.0
  outer loop
    vertex 687.8826823077017 428.1359534276556 -31.999999999999886
    vertex 707.4105745330348 284.13595342765586 -31.999999999999897
    vertex 687.1989851629032 284.13595342765586 -31.999999999999897
  endloop
endfacet
facet normal 5.0119576865461934e-33 7.833240229299731e-17 -1.0
  outer loop
    vertex 707.4105745330348 284.13595342765586 -31.999999999999897
    vertex 687.8826823077017 428.1359534276556 -31.999999999999886
    vertex 707.4105745330348 428.1359534276556 -31.999999999999886
  endloop
endfacet
facet normal 3.747482420949315e-44 3.75995531006387e-15 1.0
  outer loop
    vertex 707.4105745330348 281.13595342765586 -28.999999999999886
    vertex 687.1989851629032 284.13595342765586 -28.999999999999897
    vertex 687.1989851629032 281.13595342765586 -28.999999999999886
  endloop
endfacet
facet normal 3.747482420949315e-44 3.75995531006387e-15 1.0
  outer loop
    vertex 687.1989851629032 284.13595342765586 -28.999999999999897
    vertex 707.4105745330348 281.13595342765586 -28.999999999999886
    vertex 707.4105745330348 284.13595342765586 -28.999999999999897
  endloop
endfacet
facet normal -5.0119576865461934e-33 -7.833240229299731e-17 1.0
  outer loop
    vertex 707.4105745330348 284.13595342765586 -28.999999999999897
    vertex 687.8826823077017 428.1359534276556 -28.999999999999886
    vertex 687.1989851629032 284.13595342765586 -28.999999999999897
  endloop
endfacet
facet normal -5.0119576865461934e-33 -7.833240229299731e-17 1.0
  outer loop
    vertex 687.8826823077017 428.1359534276556 -28.999999999999886
    vertex 707.4105745330348 284.13595342765586 -28.999999999999897
    vertex 707.4105745330348 428.1359534276556 -28.999999999999886
  endloop
endfacet
facet normal -0.9999887289283623 0.004747843324992776 4.728899387901616e-18
  outer loop
    vertex 687.8826823077017 428.1359534276556 -28.999999999999886
    vertex 687.1989851629032 284.13595342765586 -31.999999999999897
    vertex 687.1989851629032 284.13595342765586 -28.999999999999897
  endloop
endfacet
facet normal -0.9999887289283623 0.004747843324992776 4.728899387901616e-18
  outer loop
    vertex 687.1989851629032 284.13595342765586 -31.999999999999897
    vertex 687.8826823077017 428.1359534276556 -28.999999999999886
    vertex 687.8826823077017 428.1359534276556 -31.999999999999886
  endloop
endfacet
facet normal 1.0 0.0 0.0
  outer loop
    vertex 707.4105745330348 428.1359534276556 -31.999999999999886
    vertex 707.4105745330348 284.13595342765586 -28.999999999999897
    vertex 707.4105745330348 284.13595342765586 -31.999999999999897
  endloop
endfacet
facet normal 1.0 0.0 0.0
  outer loop
    vertex 707.4105745330348 284.13595342765586 -28.999999999999897
    vertex 707.4105745330348 428.1359534276556 -31.999999999999886
    vertex 707.4105745330348 428.1359534276556 -28.999999999999886
  endloop
endfacet
facet normal 0.0 1.0 0.0
  outer loop
    vertex 687.8826823077017 428.1359534276556 -28.999999999999886
    vertex 707.4105745330348 428.1359534276556 -31.999999999999886
    vertex 687.8826823077017 428.1359534276556 -31.999999999999886
  endloop
endfacet
facet normal 0.0 1.0 0.0
  outer loop
    vertex 707.4105745330348 428.1359534276556 -31.999999999999886
    vertex 687.8826823077017 428.1359534276556 -28.999999999999886
    vertex 707.4105745330348 428.1359534276556 -28.999999999999886
  endloop
endfacet
facet normal 0.0 1.0 0.0
  outer loop
    vertex 687.1989851629032 284.13595342765586 -28.999999999999897
    vertex 707.4105745330348 284.13595342765586 -31.999999999999897
    vertex 687.1989851629032 284.13595342765586 -31.999999999999897
  endloop
endfacet
facet normal 0.0 1.0 0.0
  outer loop
    vertex 707.4105745330348 284.13595342765586 -31.999999999999897
    vertex 687.1989851629032 284.13595342765586 -28.999999999999897
    vertex 707.4105745330348 284.13595342765586 -28.999999999999897
  endloop
endfacet
facet normal 0.0 0.0 1.0
  outer loop
    vertex 707.4105745330348 428.1359534276556 -28.999999999999886
    vertex 687.8826823077017 431.1359534276557 -28.999999999999886
    vertex 687.8826823077017 428.1359534276556 -28.999999999999886
  endloop
endfacet
facet normal 0.0 0.0 1.0
  outer loop
    vertex 687.8826823077017 431.1359534276557 -28.999999999999886
    vertex 707.4105745330348 428.1359534276556 -28.999999999999886
    vertex 707.4105745330348 431.1359534276557 -28.999999999999886
  endloop
endfacet
facet normal 1.0 0.0 0.0
  outer loop
    vertex 777.8826823077018 431.1359534276557 -66.99999999999989
    vertex 777.8826823077017 281.13595342765575 -25.99999999999988
    vertex 777.8826823077018 281.13595342765575 -66.99999999999989
  endloop
endfacet
facet normal 1.0 0.0 0.0
  outer loop
    vertex 777.8826823077017 281.13595342765575 -25.99999999999988
    vertex 777.8826823077018 431.1359534276557 -66.99999999999989
    vertex 777.8826823077017 301.13595342765575 -28.999999999999872
  endloop
endfacet
facet normal 1.0 0.0 0.0
  outer loop
    vertex 777.8826823077017 301.13595342765575 -28.999999999999872
    vertex 777.8826823077018 431.1359534276557 -66.99999999999989
    vertex 777.8826823077017 316.1359534276558 -28.99999999999988
  endloop
endfacet
facet normal 1.0 0.0 0.0
  outer loop
    vertex 777.8826823077017 316.1359534276558 -28.99999999999988
    vertex 777.8826823077018 431.1359534276557 -66.99999999999989
    vertex 777.8826823077017 316.1359534276558 -25.999999999999886
  endloop
endfacet
facet normal 1.0 0.0 0.0
  outer loop
    vertex 777.8826823077017 316.1359534276558 -25.999999999999886
    vertex 777.8826823077018 431.1359534276557 -66.99999999999989
    vertex 777.8826823077017 396.13595342765575 -28.99999999999988
  endloop
endfacet
facet normal 1.0 0.0 0.0
  outer loop
    vertex 777.8826823077017 396.13595342765575 -28.99999999999988
    vertex 777.8826823077018 431.1359534276557 -66.99999999999989
    vertex 777.8826823077017 411.13595342765575 -28.999999999999872
  endloop
endfacet
facet normal 1.0 0.0 0.0
  outer loop
    vertex 777.8826823077017 411.13595342765575 -28.999999999999872
    vertex 777.8826823077018 431.1359534276557 -66.99999999999989
    vertex 777.8826823077017 411.13595342765575 -25.99999999999988
  endloop
endfacet
facet normal 1.0 0.0 0.0
  outer loop
    vertex 777.8826823077017 411.13595342765575 -25.99999999999988
    vertex 777.8826823077018 431.1359534276557 -66.99999999999989
    vertex 777.8826823077017 431.1359534276557 -25.99999999999988
  endloop
endfacet
facet normal 1.0 0.0 0.0
  outer loop
    vertex 777.8826823077017 431.1359534276557 -25.99999999999988
    vertex 777.8826823077018 431.1359534276557 -66.99999999999989
    vertex 777.8826823077018 431.1359534276557 -61.99999999999987
  endloop
endfacet
facet normal 1.0 0.0 0.0
  outer loop
    vertex 777.8826823077017 396.13595342765575 -25.999999999999886
    vertex 777.8826823077017 316.1359534276558 -25.999999999999886
    vertex 777.8826823077017 396.13595342765575 -28.99999999999988
  endloop
endfacet
facet normal 1.0 0.0 0.0
  outer loop
    vertex 777.8826823077017 301.13595342765575 -25.99999999999988
    vertex 777.8826823077017 281.13595342765575 -25.99999999999988
    vertex 777.8826823077017 301.13595342765575 -28.999999999999872
  endloop
endfacet
facet normal 1.1279865930191102e-14 1.0 -1.2533184366878842e-15
  outer loop
    vertex 773.8826823077013 431.1359534276558 -25.99999999999988
    vertex 777.8826823077018 431.1359534276557 -61.99999999999987
    vertex 773.8826823077017 431.1359534276557 -61.99999999999987
  endloop
endfacet
facet normal 1.1279865930191102e-14 1.0 -1.2533184366878842e-15
  outer loop
    vertex 777.8826823077018 431.1359534276557 -61.99999999999987
    vertex 773.8826823077013 431.1359534276558 -25.99999999999988
    vertex 777.8826823077017 431.1359534276557 -25.99999999999988
  endloop
endfacet
facet normal -2.254704520337181e-16 -1.0 1.6757879392732317e-15
  outer loop
    vertex 777.8826823077018 281.13595342765575 -66.99999999999989
    vertex 773.8826823077015 281.13595342765575 -62.99999999999987
    vertex 619.8826823077014 281.13595342765575 -66.99999999999989
  endloop
endfacet
facet normal -2.254704520337181e-16 -1.0 1.6757879392732317e-15
  outer loop
    vertex 773.8826823077015 281.13595342765575 -62.99999999999987
    vertex 777.8826823077018 281.13595342765575 -66.99999999999989
    vertex 777.8826823077017 281.13595342765575 -25.99999999999988
  endloop
endfacet
facet normal -2.254704520337181e-16 -1.0 1.6757879392732317e-15
  outer loop
    vertex 619.8826823077014 281.13595342765575 -66.99999999999989
    vertex 773.8826823077015 281.13595342765575 -62.99999999999987
    vertex 707.4105745330348 281.13595342765575 -62.999999999999886
  endloop
endfacet
facet normal -2.254704520337181e-16 -1.0 1.6757879392732317e-15
  outer loop
    vertex 773.8826823077015 281.13595342765575 -62.99999999999987
    vertex 777.8826823077017 281.13595342765575 -25.99999999999988
    vertex 773.8826823077013 281.1359534276557 -25.99999999999989
  endloop
endfacet
facet normal -2.254704520337181e-16 -1.0 1.6757879392732317e-15
  outer loop
    vertex 707.4105745330348 281.13595342765586 -28.999999999999886
    vertex 687.1989851629032 281.13595342765575 -62.999999999999886
    vertex 707.4105745330348 281.13595342765575 -62.999999999999886
  endloop
endfacet
facet normal -2.254704520337181e-16 -1.0 1.6757879392732317e-15
  outer loop
    vertex 687.1989851629032 281.13595342765575 -62.999999999999886
    vertex 707.4105745330348 281.13595342765586 -28.999999999999886
    vertex 687.1989851629032 281.13595342765586 -28.999999999999886
  endloop
endfacet
facet normal -2.254704520337181e-16 -1.0 1.6757879392732317e-15
  outer loop
    vertex 619.8826823077014 281.13595342765575 -66.99999999999989
    vertex 623.8826823077015 281.13595342765575 -62.999999999999886
    vertex 619.8826823077014 281.13595342765575 -61.99999999999987
  endloop
endfacet
facet normal -2.254704520337181e-16 -1.0 1.6757879392732317e-15
  outer loop
    vertex 623.8826823077015 281.13595342765575 -62.999999999999886
    vertex 619.8826823077014 281.13595342765575 -66.99999999999989
    vertex 707.4105745330348 281.13595342765575 -62.999999999999886
  endloop
endfacet
facet normal -2.254704520337181e-16 -1.0 1.6757879392732317e-15
  outer loop
    vertex 623.8826823077015 281.13595342765575 -62.999999999999886
    vertex 707.4105745330348 281.13595342765575 -62.999999999999886
    vertex 687.1989851629032 281.13595342765575 -62.999999999999886
  endloop
endfacet
facet normal -2.254704520337181e-16 -1.0 1.6757879392732317e-15
  outer loop
    vertex 619.8826823077014 281.13595342765575 -61.99999999999987
    vertex 623.8826823077015 281.13595342765575 -62.999999999999886
    vertex 623.8826823077015 281.13595342765575 -61.999999999999886
  endloop
endfacet
facet normal -1.0 0.0 0.0
  outer loop
    vertex 619.8826823077017 396.13595342765575 -25.999999999999897
    vertex 619.8826823077017 316.13595342765575 -28.99999999999989
    vertex 619.8826823077017 316.13595342765575 -25.999999999999897
  endloop
endfacet
facet normal -1.0 0.0 0.0
  outer loop
    vertex 619.8826823077017 431.1359534276557 -25.99999999999988
    vertex 619.8826823077017 411.13595342765575 -28.999999999999872
    vertex 619.8826823077017 411.13595342765575 -25.99999999999988
  endloop
endfacet
facet normal -1.0 0.0 0.0
  outer loop
    vertex 619.8826823077017 301.13595342765575 -25.999999999999886
    vertex 619.8826823077014 281.13595342765575 -61.99999999999987
    vertex 619.8826823077017 281.13595342765575 -25.99999999999988
  endloop
endfacet
facet normal -1.0 0.0 0.0
  outer loop
    vertex 619.8826823077014 281.13595342765575 -61.99999999999987
    vertex 619.8826823077017 301.13595342765575 -25.999999999999886
    vertex 619.8826823077014 281.13595342765575 -66.99999999999989
  endloop
endfacet
facet normal -1.0 0.0 0.0
  outer loop
    vertex 619.8826823077014 281.13595342765575 -66.99999999999989
    vertex 619.8826823077017 301.13595342765575 -25.999999999999886
    vertex 619.8826823077017 301.13595342765575 -28.99999999999988
  endloop
endfacet
facet normal -1.0 0.0 0.0
  outer loop
    vertex 619.8826823077014 281.13595342765575 -66.99999999999989
    vertex 619.8826823077017 301.13595342765575 -28.99999999999988
    vertex 619.8826823077014 431.1359534276557 -66.99999999999989
  endloop
endfacet
facet normal -1.0 0.0 0.0
  outer loop
    vertex 619.8826823077014 431.1359534276557 -66.99999999999989
    vertex 619.8826823077017 301.13595342765575 -28.99999999999988
    vertex 619.8826823077017 316.13595342765575 -28.99999999999989
  endloop
endfacet
facet normal -1.0 0.0 0.0
  outer loop
    vertex 619.8826823077014 431.1359534276557 -66.99999999999989
    vertex 619.8826823077017 316.13595342765575 -28.99999999999989
    vertex 619.8826823077017 396.13595342765575 -28.99999999999989
  endloop
endfacet
facet normal -1.0 0.0 0.0
  outer loop
    vertex 619.8826823077017 396.13595342765575 -28.99999999999989
    vertex 619.8826823077017 316.13595342765575 -28.99999999999989
    vertex 619.8826823077017 396.13595342765575 -25.999999999999897
  endloop
endfacet
facet normal -1.0 0.0 0.0
  outer loop
    vertex 619.8826823077014 431.1359534276557 -66.99999999999989
    vertex 619.8826823077017 396.13595342765575 -28.99999999999989
    vertex 619.8826823077017 411.13595342765575 -28.999999999999872
  endloop
endfacet
facet normal -1.0 0.0 0.0
  outer loop
    vertex 619.8826823077014 431.1359534276557 -66.99999999999989
    vertex 619.8826823077017 411.13595342765575 -28.999999999999872
    vertex 619.8826823077017 431.1359534276557 -25.99999999999988
  endloop
endfacet
facet normal -1.0 0.0 0.0
  outer loop
    vertex 619.8826823077014 431.1359534276557 -66.99999999999989
    vertex 619.8826823077017 431.1359534276557 -25.99999999999988
    vertex 619.8826823077014 431.1359534276557 -61.99999999999987
  endloop
endfacet
facet normal -1.2085570639490627e-15 1.8799776550319293e-16 1.0
  outer loop
    vertex 777.8826823077017 301.13595342765575 -28.999999999999872
    vertex 773.8826823077015 316.13595342765575 -28.99999999999987
    vertex 773.8826823077015 301.13595342765575 -28.99999999999987
  endloop
endfacet
facet normal -1.2085570639490627e-15 1.8799776550319293e-16 1.0
  outer loop
    vertex 773.8826823077015 316.13595342765575 -28.99999999999987
    vertex 777.8826823077017 301.13595342765575 -28.999999999999872
    vertex 777.8826823077017 316.1359534276558 -28.99999999999988
  endloop
endfacet
facet normal 6.445637674394998e-15 -1.0 1.8799776550320072e-16
  outer loop
    vertex 777.8826823077017 316.1359534276558 -25.999999999999886
    vertex 773.8826823077015 316.13595342765575 -28.99999999999987
    vertex 777.8826823077017 316.1359534276558 -28.99999999999988
  endloop
endfacet
facet normal 6.445637674394998e-15 -1.0 1.8799776550320072e-16
  outer loop
    vertex 773.8826823077015 316.13595342765575 -28.99999999999987
    vertex 777.8826823077017 316.1359534276558 -25.999999999999886
    vertex 773.8826823077015 316.13595342765575 -25.999999999999872
  endloop
endfacet
facet normal 3.029413700073642e-31 1.0 -1.8799776550319293e-16
  outer loop
    vertex 773.8826823077015 301.13595342765575 -28.99999999999987
    vertex 777.8826823077017 301.13595342765575 -25.99999999999988
    vertex 777.8826823077017 301.13595342765575 -28.999999999999872
  endloop
endfacet
facet normal 3.029413700073642e-31 1.0 -1.8799776550319293e-16
  outer loop
    vertex 777.8826823077017 301.13595342765575 -25.99999999999988
    vertex 773.8826823077015 301.13595342765575 -28.99999999999987
    vertex 773.8826823077015 301.13595342765575 -25.999999999999872
  endloop
endfacet
facet normal -8.057047092993747e-16 4.082608306733806e-34 1.0
  outer loop
    vertex 777.8826823077017 316.1359534276558 -25.999999999999886
    vertex 773.8826823077015 396.13595342765575 -25.999999999999872
    vertex 773.8826823077015 316.13595342765575 -25.999999999999872
  endloop
endfacet
facet normal -8.057047092993747e-16 4.082608306733806e-34 1.0
  outer loop
    vertex 773.8826823077015 396.13595342765575 -25.999999999999872
    vertex 777.8826823077017 316.1359534276558 -25.999999999999886
    vertex 777.8826823077017 396.13595342765575 -25.999999999999886
  endloop
endfacet
facet normal -1.2085570639490621e-15 -1.8799776550319293e-16 1.0
  outer loop
    vertex 777.8826823077017 396.13595342765575 -28.99999999999988
    vertex 773.8826823077015 411.13595342765575 -28.99999999999987
    vertex 773.8826823077015 396.13595342765575 -28.99999999999987
  endloop
endfacet
facet normal -1.2085570639490621e-15 -1.8799776550319293e-16 1.0
  outer loop
    vertex 773.8826823077015 411.13595342765575 -28.99999999999987
    vertex 777.8826823077017 396.13595342765575 -28.99999999999988
    vertex 777.8826823077017 411.13595342765575 -28.999999999999872
  endloop
endfacet
facet normal -1.514706850036821e-31 1.0 1.8799776550319293e-16
  outer loop
    vertex 773.8826823077015 396.13595342765575 -28.99999999999987
    vertex 777.8826823077017 396.13595342765575 -25.999999999999886
    vertex 777.8826823077017 396.13595342765575 -28.99999999999988
  endloop
endfacet
facet normal -1.514706850036821e-31 1.0 1.8799776550319293e-16
  outer loop
    vertex 777.8826823077017 396.13595342765575 -25.999999999999886
    vertex 773.8826823077015 396.13595342765575 -28.99999999999987
    vertex 773.8826823077015 396.13595342765575 -25.999999999999872
  endloop
endfacet
facet normal 3.029413700073642e-31 -1.0 -1.8799776550319293e-16
  outer loop
    vertex 777.8826823077017 411.13595342765575 -25.99999999999988
    vertex 773.8826823077015 411.13595342765575 -28.99999999999987
    vertex 777.8826823077017 411.13595342765575 -28.999999999999872
  endloop
endfacet
facet normal 3.029413700073642e-31 -1.0 -1.8799776550319293e-16
  outer loop
    vertex 773.8826823077015 411.13595342765575 -28.99999999999987
    vertex 777.8826823077017 411.13595342765575 -25.99999999999988
    vertex 773.8826823077015 411.13595342765575 -25.999999999999872
  endloop
endfacet
facet normal 4.431375901146561e-15 -5.639932965095787e-16 1.0
  outer loop
    vertex 623.8826823077018 396.13595342765575 -28.999999999999897
    vertex 619.8826823077017 411.13595342765575 -28.999999999999872
    vertex 619.8826823077017 396.13595342765575 -28.99999999999989
  endloop
endfacet
facet normal 4.431375901146561e-15 -5.639932965095787e-16 1.0
  outer loop
    vertex 619.8826823077017 411.13595342765575 -28.999999999999872
    vertex 623.8826823077018 396.13595342765575 -28.999999999999897
    vertex 623.8826823077018 411.13595342765575 -28.999999999999897
  endloop
endfacet
facet normal 1.8176482200441847e-30 1.0 5.639932965095787e-16
  outer loop
    vertex 619.8826823077017 396.13595342765575 -28.99999999999989
    vertex 623.8826823077018 396.13595342765575 -25.9999999999999
    vertex 623.8826823077018 396.13595342765575 -28.999999999999897
  endloop
endfacet
facet normal 1.8176482200441847e-30 1.0 5.639932965095787e-16
  outer loop
    vertex 623.8826823077018 396.13595342765575 -25.9999999999999
    vertex 619.8826823077017 396.13595342765575 -28.99999999999989
    vertex 619.8826823077017 396.13595342765575 -25.999999999999897
  endloop
endfacet
facet normal -3.1808843850773235e-30 -1.0 -5.639932965095787e-16
  outer loop
    vertex 623.8826823077018 411.13595342765575 -25.9999999999999
    vertex 619.8826823077017 411.13595342765575 -28.999999999999872
    vertex 623.8826823077018 411.13595342765575 -28.999999999999897
  endloop
endfacet
facet normal -3.1808843850773235e-30 -1.0 -5.639932965095787e-16
  outer loop
    vertex 619.8826823077017 411.13595342765575 -28.999999999999872
    vertex 623.8826823077018 411.13595342765575 -25.9999999999999
    vertex 619.8826823077017 411.13595342765575 -25.99999999999988
  endloop
endfacet
facet normal 2.0142617732484367e-15 1.0574874309554617e-16 1.0
  outer loop
    vertex 623.8826823077018 316.13595342765575 -25.999999999999886
    vertex 619.8826823077017 396.13595342765575 -25.999999999999897
    vertex 619.8826823077017 316.13595342765575 -25.999999999999897
  endloop
endfacet
facet normal 2.0142617732484367e-15 1.0574874309554617e-16 1.0
  outer loop
    vertex 619.8826823077017 396.13595342765575 -25.999999999999897
    vertex 623.8826823077018 316.13595342765575 -25.999999999999886
    vertex 623.8826823077018 396.13595342765575 -25.9999999999999
  endloop
endfacet
facet normal 1.2085570639490621e-15 5.639932965095787e-16 1.0
  outer loop
    vertex 623.8826823077018 301.13595342765575 -28.999999999999872
    vertex 619.8826823077017 316.13595342765575 -28.99999999999989
    vertex 619.8826823077017 301.13595342765575 -28.99999999999988
  endloop
endfacet
facet normal 1.2085570639490621e-15 5.639932965095787e-16 1.0
  outer loop
    vertex 619.8826823077017 316.13595342765575 -28.99999999999989
    vertex 623.8826823077018 301.13595342765575 -28.999999999999872
    vertex 623.8826823077018 316.13595342765575 -28.99999999999988
  endloop
endfacet
facet normal 4.544120550110462e-31 -1.0 5.639932965095787e-16
  outer loop
    vertex 623.8826823077018 316.13595342765575 -28.99999999999988
    vertex 619.8826823077017 316.13595342765575 -25.999999999999897
    vertex 619.8826823077017 316.13595342765575 -28.99999999999989
  endloop
endfacet
facet normal 4.544120550110462e-31 -1.0 5.639932965095787e-16
  outer loop
    vertex 619.8826823077017 316.13595342765575 -25.999999999999897
    vertex 623.8826823077018 316.13595342765575 -28.99999999999988
    vertex 623.8826823077018 316.13595342765575 -25.999999999999886
  endloop
endfacet
facet normal -9.088241100220924e-31 1.0 -5.639932965095787e-16
  outer loop
    vertex 619.8826823077017 301.13595342765575 -25.999999999999886
    vertex 623.8826823077018 301.13595342765575 -28.999999999999872
    vertex 619.8826823077017 301.13595342765575 -28.99999999999988
  endloop
endfacet
facet normal -9.088241100220924e-31 1.0 -5.639932965095787e-16
  outer loop
    vertex 623.8826823077018 301.13595342765575 -28.999999999999872
    vertex 619.8826823077017 301.13595342765575 -25.999999999999886
    vertex 623.8826823077018 301.13595342765575 -25.99999999999988
  endloop
endfacet
facet normal 1.2926656834485024e-16 2.215998314482941e-16 1.0
  outer loop
    vertex 777.8826823077017 411.13595342765575 -25.99999999999988
    vertex 773.8826823077015 428.1359534276557 -25.999999999999886
    vertex 773.8826823077015 411.13595342765575 -25.999999999999872
  endloop
endfacet
facet normal 1.2926656834485024e-16 2.215998314482941e-16 1.0
  outer loop
    vertex 773.8826823077015 428.1359534276557 -25.999999999999886
    vertex 777.8826823077017 431.1359534276557 -25.99999999999988
    vertex 773.8826823077013 431.1359534276558 -25.99999999999988
  endloop
endfacet
facet normal 1.2926656834485024e-16 2.215998314482941e-16 1.0
  outer loop
    vertex 777.8826823077017 431.1359534276557 -25.99999999999988
    vertex 773.8826823077015 428.1359534276557 -25.999999999999886
    vertex 777.8826823077017 411.13595342765575 -25.99999999999988
  endloop
endfacet
facet normal -6.941288838012894e-16 -4.214741892251831e-16 1.0
  outer loop
    vertex 777.8826823077017 281.13595342765575 -25.99999999999988
    vertex 773.8826823077015 284.1359534276557 -25.999999999999886
    vertex 773.8826823077013 281.1359534276557 -25.99999999999989
  endloop
endfacet
facet normal -6.941288838012894e-16 -4.214741892251831e-16 1.0
  outer loop
    vertex 773.8826823077015 284.1359534276557 -25.999999999999886
    vertex 777.8826823077017 281.13595342765575 -25.99999999999988
    vertex 773.8826823077015 301.13595342765575 -25.999999999999872
  endloop
endfacet
facet normal -6.941288838012894e-16 -4.214741892251831e-16 1.0
  outer loop
    vertex 773.8826823077015 301.13595342765575 -25.999999999999872
    vertex 777.8826823077017 281.13595342765575 -25.99999999999988
    vertex 777.8826823077017 301.13595342765575 -25.99999999999988
  endloop
endfacet
facet normal 2.1725473671400916e-16 -3.0415663139961925e-17 1.0
  outer loop
    vertex 623.8826823077018 281.13595342765575 -25.999999999999886
    vertex 619.8826823077017 301.13595342765575 -25.999999999999886
    vertex 619.8826823077017 281.13595342765575 -25.99999999999988
  endloop
endfacet
facet normal 2.1725473671400916e-16 -3.0415663139961925e-17 1.0
  outer loop
    vertex 619.8826823077017 301.13595342765575 -25.999999999999886
    vertex 623.8826823077018 281.13595342765575 -25.999999999999886
    vertex 623.8826823077018 301.13595342765575 -25.99999999999988
  endloop
endfacet
facet normal 2.1725473671400916e-16 -3.0415663139961925e-17 1.0
  outer loop
    vertex 623.8826823077018 301.13595342765575 -25.99999999999988
    vertex 623.8826823077018 281.13595342765575 -25.999999999999886
    vertex 623.8826823077018 284.1359534276557 -25.999999999999886
  endloop
endfacet
facet normal 0.0 -1.0 0.0
  outer loop
    vertex 623.8826823077018 281.13595342765575 -25.999999999999886
    vertex 619.8826823077014 281.13595342765575 -61.99999999999987
    vertex 623.8826823077015 281.13595342765575 -61.999999999999886
  endloop
endfacet
facet normal 0.0 -1.0 0.0
  outer loop
    vertex 619.8826823077014 281.13595342765575 -61.99999999999987
    vertex 623.8826823077018 281.13595342765575 -25.999999999999886
    vertex 619.8826823077017 281.13595342765575 -25.99999999999988
  endloop
endfacet
facet normal 1.0 -4.716375767682711e-16 -4.913953671463906e-15
  outer loop
    vertex 623.8826823077015 284.1359534276557 -62.99999999999989
    vertex 623.8826823077015 281.13595342765575 -61.999999999999886
    vertex 623.8826823077015 281.13595342765575 -62.999999999999886
  endloop
endfacet
facet normal 1.0 -4.716375767682711e-16 -4.913953671463906e-15
  outer loop
    vertex 623.8826823077015 281.13595342765575 -61.999999999999886
    vertex 623.8826823077015 284.1359534276557 -62.99999999999989
    vertex 623.8826823077018 281.13595342765575 -25.999999999999886
  endloop
endfacet
facet normal 1.0 -4.716375767682711e-16 -4.913953671463906e-15
  outer loop
    vertex 623.8826823077018 281.13595342765575 -25.999999999999886
    vertex 623.8826823077015 284.1359534276557 -62.99999999999989
    vertex 623.8826823077018 284.1359534276557 -25.999999999999886
  endloop
endfacet
facet normal 3.101311366592479e-15 -4.8230551550511105e-16 1.0
  outer loop
    vertex 623.8826823077018 411.13595342765575 -25.9999999999999
    vertex 619.8826823077017 431.1359534276557 -25.99999999999988
    vertex 619.8826823077017 411.13595342765575 -25.99999999999988
  endloop
endfacet
facet normal 3.101311366592479e-15 -4.8230551550511105e-16 1.0
  outer loop
    vertex 619.8826823077017 431.1359534276557 -25.99999999999988
    vertex 623.8826823077018 411.13595342765575 -25.9999999999999
    vertex 623.8826823077018 431.1359534276557 -25.999999999999886
  endloop
endfacet
facet normal 3.101311366592479e-15 -4.8230551550511105e-16 1.0
  outer loop
    vertex 623.8826823077018 431.1359534276557 -25.999999999999886
    vertex 623.8826823077018 411.13595342765575 -25.9999999999999
    vertex 623.8826823077018 428.1359534276557 -25.999999999999886
  endloop
endfacet
facet normal 0.0 1.0 0.0
  outer loop
    vertex 619.8826823077017 431.1359534276557 -25.99999999999988
    vertex 623.8826823077015 431.1359534276557 -61.99999999999987
    vertex 619.8826823077014 431.1359534276557 -61.99999999999987
  endloop
endfacet
facet normal 0.0 1.0 0.0
  outer loop
    vertex 623.8826823077015 431.1359534276557 -61.99999999999987
    vertex 619.8826823077017 431.1359534276557 -25.99999999999988
    vertex 623.8826823077018 431.1359534276557 -25.999999999999886
  endloop
endfacet
facet normal 1.0 4.716375767682715e-16 -4.913953671463907e-15
  outer loop
    vertex 623.8826823077015 431.1359534276557 -62.99999999999987
    vertex 623.8826823077018 428.1359534276557 -25.999999999999886
    vertex 623.8826823077015 428.1359534276557 -62.99999999999989
  endloop
endfacet
facet normal 1.0 4.716375767682715e-16 -4.913953671463907e-15
  outer loop
    vertex 623.8826823077018 428.1359534276557 -25.999999999999886
    vertex 623.8826823077015 431.1359534276557 -62.99999999999987
    vertex 623.8826823077018 431.1359534276557 -25.999999999999886
  endloop
endfacet
facet normal 1.0 4.716375767682715e-16 -4.913953671463907e-15
  outer loop
    vertex 623.8826823077018 431.1359534276557 -25.999999999999886
    vertex 623.8826823077015 431.1359534276557 -62.99999999999987
    vertex 623.8826823077015 431.1359534276557 -61.99999999999987
  endloop
endfacet
facet normal -3.441935571663698e-17 -8.186680784441161e-17 1.0
  outer loop
    vertex 687.1989851629032 284.1359534276557 -62.99999999999989
    vertex 623.8826823077015 428.1359534276557 -62.99999999999989
    vertex 623.8826823077015 284.1359534276557 -62.99999999999989
  endloop
endfacet
facet normal -3.441935571663698e-17 -8.186680784441161e-17 1.0
  outer loop
    vertex 623.8826823077015 428.1359534276557 -62.99999999999989
    vertex 687.1989851629032 284.1359534276557 -62.99999999999989
    vertex 687.8826823077017 428.1359534276556 -62.999999999999886
  endloop
endfacet
facet normal -3.441935571663698e-17 -8.186680784441161e-17 1.0
  outer loop
    vertex 687.8826823077017 428.1359534276556 -62.999999999999886
    vertex 687.1989851629032 284.1359534276557 -62.99999999999989
    vertex 707.4105745330348 284.1359534276557 -62.99999999999989
  endloop
endfacet
facet normal -3.441935571663698e-17 -8.186680784441161e-17 1.0
  outer loop
    vertex 687.8826823077017 428.1359534276556 -62.999999999999886
    vertex 707.4105745330348 284.1359534276557 -62.99999999999989
    vertex 707.4105745330348 428.1359534276556 -62.99999999999987
  endloop
endfacet
facet normal -3.441935571663698e-17 -8.186680784441161e-17 1.0
  outer loop
    vertex 707.4105745330348 428.1359534276556 -62.99999999999987
    vertex 707.4105745330348 284.1359534276557 -62.99999999999989
    vertex 773.8826823077018 284.1359534276557 -62.99999999999989
  endloop
endfacet
facet normal -3.441935571663698e-17 -8.186680784441161e-17 1.0
  outer loop
    vertex 707.4105745330348 428.1359534276556 -62.99999999999987
    vertex 773.8826823077018 284.1359534276557 -62.99999999999989
    vertex 773.8826823077017 428.13595342765575 -62.999999999999886
  endloop
endfacet
facet normal -8.547492930928599e-17 6.266592183439786e-15 1.0
  outer loop
    vertex 773.8826823077015 281.13595342765575 -62.99999999999987
    vertex 707.4105745330348 284.1359534276557 -62.99999999999989
    vertex 707.4105745330348 281.13595342765575 -62.999999999999886
  endloop
endfacet
facet normal -8.547492930928599e-17 6.266592183439786e-15 1.0
  outer loop
    vertex 707.4105745330348 284.1359534276557 -62.99999999999989
    vertex 773.8826823077015 281.13595342765575 -62.99999999999987
    vertex 773.8826823077018 284.1359534276557 -62.99999999999989
  endloop
endfacet
facet normal 0.0 3.75995531006387e-15 1.0
  outer loop
    vertex 687.1989851629032 281.13595342765575 -62.999999999999886
    vertex 623.8826823077015 284.1359534276557 -62.99999999999989
    vertex 623.8826823077015 281.13595342765575 -62.999999999999886
  endloop
endfacet
facet normal 0.0 3.75995531006387e-15 1.0
  outer loop
    vertex 623.8826823077015 284.1359534276557 -62.99999999999989
    vertex 687.1989851629032 281.13595342765575 -62.999999999999886
    vertex 687.1989851629032 284.1359534276557 -62.99999999999989
  endloop
endfacet
facet normal -2.6546846183320016e-30 -3.7599553100637e-15 1.0
  outer loop
    vertex 687.8826823077017 428.1359534276556 -62.999999999999886
    vertex 623.8826823077015 431.1359534276557 -62.99999999999987
    vertex 623.8826823077015 428.1359534276557 -62.99999999999989
  endloop
endfacet
facet normal -2.6546846183320016e-30 -3.7599553100637e-15 1.0
  outer loop
    vertex 623.8826823077015 431.1359534276557 -62.99999999999987
    vertex 687.8826823077017 428.1359534276556 -62.999999999999886
    vertex 687.8826823077017 431.1359534276557 -62.999999999999886
  endloop
endfacet
facet normal 1.0 -5.227168356959771e-31 -4.990813536855973e-15
  outer loop
    vertex 623.8826823077015 428.1359534276557 -62.99999999999989
    vertex 623.8826823077018 284.1359534276557 -25.999999999999886
    vertex 623.8826823077015 284.1359534276557 -62.99999999999989
  endloop
endfacet
facet normal 1.0 -5.227168356959771e-31 -4.990813536855973e-15
  outer loop
    vertex 623.8826823077018 284.1359534276557 -25.999999999999886
    vertex 623.8826823077015 428.1359534276557 -62.99999999999989
    vertex 623.8826823077018 301.13595342765575 -28.999999999999872
  endloop
endfacet
facet normal 1.0 -5.227168356959771e-31 -4.990813536855973e-15
  outer loop
    vertex 623.8826823077018 301.13595342765575 -28.999999999999872
    vertex 623.8826823077015 428.1359534276557 -62.99999999999989
    vertex 623.8826823077018 316.13595342765575 -28.99999999999988
  endloop
endfacet
facet normal 1.0 -5.227168356959771e-31 -4.990813536855973e-15
  outer loop
    vertex 623.8826823077018 316.13595342765575 -28.99999999999988
    vertex 623.8826823077015 428.1359534276557 -62.99999999999989
    vertex 623.8826823077018 316.13595342765575 -25.999999999999886
  endloop
endfacet
facet normal 1.0 -5.227168356959771e-31 -4.990813536855973e-15
  outer loop
    vertex 623.8826823077018 316.13595342765575 -25.999999999999886
    vertex 623.8826823077015 428.1359534276557 -62.99999999999989
    vertex 623.8826823077018 396.13595342765575 -28.999999999999897
  endloop
endfacet
facet normal 1.0 -5.227168356959771e-31 -4.990813536855973e-15
  outer loop
    vertex 623.8826823077018 396.13595342765575 -28.999999999999897
    vertex 623.8826823077015 428.1359534276557 -62.99999999999989
    vertex 623.8826823077018 411.13595342765575 -28.999999999999897
  endloop
endfacet
facet normal 1.0 -5.227168356959771e-31 -4.990813536855973e-15
  outer loop
    vertex 623.8826823077018 411.13595342765575 -28.999999999999897
    vertex 623.8826823077015 428.1359534276557 -62.99999999999989
    vertex 623.8826823077018 411.13595342765575 -25.9999999999999
  endloop
endfacet
facet normal 1.0 -5.227168356959771e-31 -4.990813536855973e-15
  outer loop
    vertex 623.8826823077018 411.13595342765575 -25.9999999999999
    vertex 623.8826823077015 428.1359534276557 -62.99999999999989
    vertex 623.8826823077018 428.1359534276557 -25.999999999999886
  endloop
endfacet
facet normal 1.0 -5.227168356959771e-31 -4.990813536855973e-15
  outer loop
    vertex 623.8826823077018 396.13595342765575 -25.9999999999999
    vertex 623.8826823077018 316.13595342765575 -25.999999999999886
    vertex 623.8826823077018 396.13595342765575 -28.999999999999897
  endloop
endfacet
facet normal 1.0 -5.227168356959771e-31 -4.990813536855973e-15
  outer loop
    vertex 623.8826823077018 301.13595342765575 -25.99999999999988
    vertex 623.8826823077018 284.1359534276557 -25.999999999999886
    vertex 623.8826823077018 301.13595342765575 -28.999999999999872
  endloop
endfacet
facet normal -1.0 -1.0578750320959152e-16 -3.3075952103651097e-15
  outer loop
    vertex 773.8826823077015 396.13595342765575 -25.999999999999872
    vertex 773.8826823077015 316.13595342765575 -28.99999999999987
    vertex 773.8826823077015 316.13595342765575 -25.999999999999872
  endloop
endfacet
facet normal -1.0 -1.0578750320959152e-16 -3.3075952103651097e-15
  outer loop
    vertex 773.8826823077015 428.1359534276557 -25.999999999999886
    vertex 773.8826823077015 411.13595342765575 -28.99999999999987
    vertex 773.8826823077015 411.13595342765575 -25.999999999999872
  endloop
endfacet
facet normal -1.0 -1.0578750320959152e-16 -3.3075952103651097e-15
  outer loop
    vertex 773.8826823077015 301.13595342765575 -25.999999999999872
    vertex 773.8826823077018 284.1359534276557 -62.99999999999989
    vertex 773.8826823077015 284.1359534276557 -25.999999999999886
  endloop
endfacet
facet normal -1.0 -1.0578750320959152e-16 -3.3075952103651097e-15
  outer loop
    vertex 773.8826823077018 284.1359534276557 -62.99999999999989
    vertex 773.8826823077015 301.13595342765575 -25.999999999999872
    vertex 773.8826823077015 301.13595342765575 -28.99999999999987
  endloop
endfacet
facet normal -1.0 -1.0578750320959152e-16 -3.3075952103651097e-15
  outer loop
    vertex 773.8826823077018 284.1359534276557 -62.99999999999989
    vertex 773.8826823077015 301.13595342765575 -28.99999999999987
    vertex 773.8826823077017 428.13595342765575 -62.999999999999886
  endloop
endfacet
facet normal -1.0 -1.0578750320959152e-16 -3.3075952103651097e-15
  outer loop
    vertex 773.8826823077017 428.13595342765575 -62.999999999999886
    vertex 773.8826823077015 301.13595342765575 -28.99999999999987
    vertex 773.8826823077015 316.13595342765575 -28.99999999999987
  endloop
endfacet
facet normal -1.0 -1.0578750320959152e-16 -3.3075952103651097e-15
  outer loop
    vertex 773.8826823077017 428.13595342765575 -62.999999999999886
    vertex 773.8826823077015 316.13595342765575 -28.99999999999987
    vertex 773.8826823077015 396.13595342765575 -28.99999999999987
  endloop
endfacet
facet normal -1.0 -1.0578750320959152e-16 -3.3075952103651097e-15
  outer loop
    vertex 773.8826823077015 396.13595342765575 -28.99999999999987
    vertex 773.8826823077015 316.13595342765575 -28.99999999999987
    vertex 773.8826823077015 396.13595342765575 -25.999999999999872
  endloop
endfacet
facet normal -1.0 -1.0578750320959152e-16 -3.3075952103651097e-15
  outer loop
    vertex 773.8826823077017 428.13595342765575 -62.999999999999886
    vertex 773.8826823077015 396.13595342765575 -28.99999999999987
    vertex 773.8826823077015 411.13595342765575 -28.99999999999987
  endloop
endfacet
facet normal -1.0 -1.0578750320959152e-16 -3.3075952103651097e-15
  outer loop
    vertex 773.8826823077017 428.13595342765575 -62.999999999999886
    vertex 773.8826823077015 411.13595342765575 -28.99999999999987
    vertex 773.8826823077015 428.1359534276557 -25.999999999999886
  endloop
endfacet
facet normal -1.0 4.010618997401451e-14 -4.941816731606794e-15
  outer loop
    vertex 773.8826823077015 284.1359534276557 -25.999999999999886
    vertex 773.8826823077015 281.13595342765575 -62.99999999999987
    vertex 773.8826823077013 281.1359534276557 -25.99999999999989
  endloop
endfacet
facet normal -1.0 4.010618997401451e-14 -4.941816731606794e-15
  outer loop
    vertex 773.8826823077015 281.13595342765575 -62.99999999999987
    vertex 773.8826823077015 284.1359534276557 -25.999999999999886
    vertex 773.8826823077018 284.1359534276557 -62.99999999999989
  endloop
endfacet
facet normal 0.0 1.0 0.0
  outer loop
    vertex 619.8826823077014 431.1359534276557 -66.99999999999989
    vertex 623.8826823077015 431.1359534276557 -62.99999999999987
    vertex 777.8826823077018 431.1359534276557 -66.99999999999989
  endloop
endfacet
facet normal 0.0 1.0 0.0
  outer loop
    vertex 623.8826823077015 431.1359534276557 -62.99999999999987
    vertex 619.8826823077014 431.1359534276557 -66.99999999999989
    vertex 619.8826823077014 431.1359534276557 -61.99999999999987
  endloop
endfacet
facet normal 0.0 1.0 0.0
  outer loop
    vertex 777.8826823077018 431.1359534276557 -66.99999999999989
    vertex 623.8826823077015 431.1359534276557 -62.99999999999987
    vertex 687.8826823077017 431.1359534276557 -62.999999999999886
  endloop
endfacet
facet normal 0.0 1.0 0.0
  outer loop
    vertex 623.8826823077015 431.1359534276557 -62.99999999999987
    vertex 619.8826823077014 431.1359534276557 -61.99999999999987
    vertex 623.8826823077015 431.1359534276557 -61.99999999999987
  endloop
endfacet
facet normal 0.0 1.0 0.0
  outer loop
    vertex 687.8826823077017 431.1359534276557 -28.999999999999886
    vertex 707.4105745330348 431.1359534276557 -62.99999999999987
    vertex 687.8826823077017 431.1359534276557 -62.999999999999886
  endloop
endfacet
facet normal 0.0 1.0 0.0
  outer loop
    vertex 707.4105745330348 431.1359534276557 -62.99999999999987
    vertex 687.8826823077017 431.1359534276557 -28.999999999999886
    vertex 707.4105745330348 431.1359534276557 -28.999999999999886
  endloop
endfacet
facet normal 0.0 1.0 0.0
  outer loop
    vertex 777.8826823077018 431.1359534276557 -66.99999999999989
    vertex 773.8826823077017 431.1359534276557 -62.99999999999987
    vertex 777.8826823077018 431.1359534276557 -61.99999999999987
  endloop
endfacet
facet normal 0.0 1.0 0.0
  outer loop
    vertex 773.8826823077017 431.1359534276557 -62.99999999999987
    vertex 777.8826823077018 431.1359534276557 -66.99999999999989
    vertex 687.8826823077017 431.1359534276557 -62.999999999999886
  endloop
endfacet
facet normal 0.0 1.0 0.0
  outer loop
    vertex 773.8826823077017 431.1359534276557 -62.99999999999987
    vertex 687.8826823077017 431.1359534276557 -62.999999999999886
    vertex 707.4105745330348 431.1359534276557 -62.99999999999987
  endloop
endfacet
facet normal 0.0 1.0 0.0
  outer loop
    vertex 777.8826823077018 431.1359534276557 -61.99999999999987
    vertex 773.8826823077017 431.1359534276557 -62.99999999999987
    vertex 773.8826823077017 431.1359534276557 -61.99999999999987
  endloop
endfacet
facet normal -1.0 -2.5245357318636882e-14 -5.248561411738689e-15
  outer loop
    vertex 773.8826823077013 431.1359534276558 -25.99999999999988
    vertex 773.8826823077017 428.13595342765575 -62.999999999999886
    vertex 773.8826823077015 428.1359534276557 -25.999999999999886
  endloop
endfacet
facet normal -1.0 -2.5245357318636882e-14 -5.248561411738689e-15
  outer loop
    vertex 773.8826823077017 428.13595342765575 -62.999999999999886
    vertex 773.8826823077013 431.1359534276558 -25.99999999999988
    vertex 773.8826823077017 431.1359534276557 -61.99999999999987
  endloop
endfacet
facet normal -1.0 -2.5245357318636882e-14 -5.248561411738689e-15
  outer loop
    vertex 773.8826823077017 431.1359534276557 -62.99999999999987
    vertex 773.8826823077017 428.13595342765575 -62.999999999999886
    vertex 773.8826823077017 431.1359534276557 -61.99999999999987
  endloop
endfacet
facet normal 8.484660941119434e-17 -1.8799776550318505e-15 1.0
  outer loop
    vertex 773.8826823077017 428.13595342765575 -62.999999999999886
    vertex 707.4105745330348 431.1359534276557 -62.99999999999987
    vertex 707.4105745330348 428.1359534276556 -62.99999999999987
  endloop
endfacet
facet normal 8.484660941119434e-17 -1.8799776550318505e-15 1.0
  outer loop
    vertex 707.4105745330348 431.1359534276557 -62.99999999999987
    vertex 773.8826823077017 428.13595342765575 -62.999999999999886
    vertex 773.8826823077017 431.1359534276557 -62.99999999999987
  endloop
endfacet
endsolid Tesis-base sola
